# xmcd CD database file
#
# Track frame offsets:
#	150
#	16912
#	40839
#	56813
#	81747
#	100738
#	124794
#	136166
#	157168
#	184742
#	204209
#	233360
#
# Disc length: 3585 seconds
#
# Revision: 2
# Processed by: cddbd v1.5.2PL0 Copyright (c) Steve Scherf et al.
# Submitted via: CDex 1.51
#
DISCID=990dff0c
DTITLE=Various Artist - Romantic Freedom
DYEAR=2005
DGENRE=Jazz
TTITLE0=Bugge Wesseltoft - Greensleeves
TTITLE1=Joachim Kühn - Adagio, Concert in A-Major, KV 622
TTITLE2=Michael Wollny - There Again
TTITLE3=Brad Mehldau - Resignation
TTITLE4=Esbjörn Svensson - Prelude in D-Minor
TTITLE5=Leszek Mozdzer - Sanctus
TTITLE6=Richie Beirach - Musica Callada # 15
TTITLE7=George Gruntz - My Foolish Heart
TTITLE8=Kevin Hays - Sacred Circles
TTITLE9=Ramon Valle - Andalucia
TTITLE10=Jens Thomas - Poverty
TTITLE11=Eric Watson - Exits
EXTD=YEAR: 2005
EXTT0=
EXTT1=
EXTT2=
EXTT3=
EXTT4=
EXTT5=
EXTT6=
EXTT7=
EXTT8=
EXTT9=
EXTT10=
EXTT11=
PLAYORDER=
